<svg xmlns="http://www.w3.org/2000/svg" viewBox="0 0 1400 500" width="1400" height="500" preserveAspectRatio="xMidYMid meet">
<g transform="translate(0.000000,500.000000) scale(0.100000,-0.100000)" fill="#f5f0d8" stroke="none">
<path d="M1834 3344 c-21 -19 -25 -36 -113 -449 -16 -77 -42 -212 -56 -300
-15 -88 -35 -196 -45 -240 -32 -138 -100 -590 -110 -733 -5 -75 -18 -181 -29
-234 -19 -90 -45 -367 -36 -377 3 -2 7 4 11 13 5 12 12 7 35 -27 34 -50 36
-63 10 -77 -28 -15 -31 -13 -31 19 0 26 -24 60 -35 49 -9 -8 -55 -194 -55
-220 0 -44 21 -54 117 -61 48 -4 89 -11 91 -17 2 -5 14 -10 26 -10 12 0 28 -6
35 -13 11 -9 14 -9 18 1 4 9 55 12 211 12 114 0 213 4 220 8 7 5 10 16 6 25
-3 10 -11 14 -18 9 -6 -4 -26 -7 -43 -7 -38 0 -34 -20 -37 220 l-1 120 40 12
c25 8 41 9 43 3 5 -14 40 -12 44 2 8 22 58 -2 88 -44 28 -38 30 -48 30 -127 0
-62 6 -97 19 -127 l19 -41 83 -11 c102 -15 182 -15 229 -2 30 8 37 16 49 54 8
29 10 64 6 100 -8 62 12 179 30 173 10 -4 17 -42 30 -161 9 -93 30 -143 69
-164 27 -15 68 -17 321 -18 160 -1 307 3 328 8 21 5 57 26 79 46 56 50 176
192 214 253 31 48 35 65 65 247 14 82 31 94 55 35 52 -131 72 -167 128 -243
35 -47 73 -93 84 -103 11 -10 87 -42 169 -70 135 -46 156 -51 238 -51 77 0
100 4 155 28 36 15 98 41 139 58 101 40 115 51 160 122 71 109 132 185 146
180 22 -9 60 -129 94 -297 23 -116 45 -158 86 -169 17 -4 86 -12 155 -18 69
-6 168 -14 220 -20 122 -12 222 -13 254 0 14 5 43 26 66 46 l40 37 73 -22 c72
-21 181 -28 247 -15 48 10 104 70 126 134 29 85 120 261 153 298 16 17 37 32
45 32 25 0 69 -55 152 -192 43 -72 104 -157 134 -190 l55 -59 62 7 c52 6 70
13 103 41 77 66 86 115 45 247 -14 45 -36 117 -49 161 -14 44 -47 145 -75 225
-71 199 -160 485 -172 545 -16 85 15 186 161 525 154 357 178 554 81 669 -34
41 -80 51 -185 38 -86 -10 -123 -37 -185 -133 -24 -38 -62 -98 -85 -134 -22
-36 -48 -66 -57 -68 -12 -2 -33 29 -77 116 -76 148 -127 200 -227 231 -145 45
-196 36 -234 -41 -29 -61 -27 -102 13 -194 19 -44 40 -111 46 -149 6 -39 21
-100 32 -138 20 -62 21 -72 8 -130 -7 -34 -18 -91 -24 -125 -6 -35 -14 -61
-18 -57 -3 4 -14 2 -24 -3 -15 -8 -14 -11 12 -23 45 -22 66 -91 65 -217 -1
-140 -3 -142 -101 -142 -71 0 -79 -2 -73 -17 4 -11 8 -12 11 -5 5 15 90 16
126 2 l26 -9 -5 -158 c-6 -193 -10 -216 -42 -271 -17 -29 -27 -62 -29 -98 -2
-30 -6 -58 -9 -64 -3 -5 2 -13 11 -18 13 -7 15 -18 9 -51 -8 -51 -85 -209
-113 -235 -21 -18 -22 -18 -74 4 -37 16 -83 25 -151 30 -66 4 -103 11 -113 22
-24 24 -45 185 -48 377 -29 1467 -34 1572 -80 1603 -17 12 -319 9 -353 -3 -24
-8 -34 -20 -47 -61 -9 -28 -16 -64 -16 -80 0 -16 -7 -60 -16 -98 -22 -99 -52
-116 -70 -40 -11 46 -112 245 -143 281 -44 53 -128 106 -212 136 -100 34 -282
37 -373 4 -207 -74 -344 -217 -410 -429 -15 -46 -31 -93 -37 -104 -11 -20 -11
-20 -25 0 -18 26 -49 115 -64 182 -23 104 -96 198 -193 247 -89 45 -159 53
-459 53 l-277 0 -20 -56 c-31 -80 -42 -177 -42 -359 -1 -88 -5 -191 -10 -230
-4 -38 -13 -189 -19 -335 -25 -605 -37 -800 -51 -814 -5 -6 -9 -26 -9 -45 0
-33 -1 -33 -19 -17 -10 9 -22 36 -25 59 -4 23 -18 77 -31 120 -14 43 -30 110
-36 150 -5 40 -19 99 -29 132 -23 75 -36 137 -51 240 -6 44 -19 116 -29 160
-10 44 -23 114 -29 155 -7 41 -23 120 -36 175 -13 55 -31 164 -40 243 -9 79
-25 176 -36 215 -10 40 -28 115 -40 167 -32 148 -30 143 -69 152 -19 4 -107
10 -195 14 -148 6 -162 5 -181 -12z m1437 -552 c73 -48 90 -76 113 -198 13
-72 7 -114 -16 -114 -7 -1 -55 -3 -106 -5 l-94 -4 -14 34 c-8 19 -14 49 -14
67 0 18 -7 57 -14 87 -16 57 -11 81 25 132 26 38 62 38 120 1z m1234 -194 c19
-58 29 -608 12 -671 l-12 -48 -28 22 c-20 15 -25 25 -18 32 6 6 7 15 2 21 -29
36 -47 431 -27 596 2 14 4 33 4 43 2 20 60 25 67 5z m1735 -409 c0 -5 4 -8 9
-5 21 13 49 -67 32 -92 -6 -10 -13 -4 -25 23 -9 19 -21 33 -27 30 -5 -4 -9 8
-9 24 0 17 5 31 10 31 6 0 10 -5 10 -11z m-2840 -124 c19 -23 2 -459 -25 -640
-15 -103 -36 -149 -87 -197 -52 -50 -85 -60 -94 -30 -3 9 -10 26 -14 37 -5 11
-11 45 -14 75 -2 30 -10 102 -16 160 -12 100 -10 258 6 458 8 98 20 112 99
112 30 1 64 9 85 20 43 24 45 24 60 5z m-731 -724 c7 -5 12 -14 9 -21 -2 -7
-10 -4 -22 9 -19 21 -12 28 13 12z m-721 -245 c28 -52 36 -181 13 -196 -12 -7
-11 -15 3 -49 9 -23 16 -58 16 -79 l-1 -37 -21 25 c-14 16 -22 21 -25 12 -8
-23 -23 -1 -23 34 0 35 -13 46 -24 18 -3 -9 -6 -27 -6 -40 0 -28 -1 -28 -35
-12 -23 10 -34 28 -17 28 4 0 8 41 9 90 2 77 29 208 50 243 12 20 40 3 61 -37z
m-288 -200 c0 -3 -4 -8 -10 -11 -5 -3 -10 -1 -10 4 0 6 5 11 10 11 6 0 10 -2
10 -4z m144 -51 c5 -22 4 -26 -4 -15 -5 8 -10 24 -10 34 0 26 6 18 14 -19z
M3255 2540 c-10 -17 12 -37 25 -24 8 8 6 15 -4 23 -10 9 -16 9 -21 1z M7608
3294 c-107 -15 -158 -36 -220 -92 -63 -57 -87 -104 -114 -220 -29 -131 -31
-235 -5 -374 11 -57 22 -125 26 -153 3 -27 19 -77 35 -110 16 -33 42 -90 58
-126 31 -70 162 -266 275 -414 38 -49 77 -105 87 -125 36 -70 49 -198 19 -188
-5 2 -24 26 -41 53 -47 71 -80 85 -206 85 -116 0 -155 -12 -194 -58 -51 -60
-77 -305 -52 -487 20 -141 51 -201 158 -303 l84 -79 84 -14 c46 -7 139 -13
208 -14 158 0 181 10 318 143 131 127 140 146 152 340 5 81 14 165 20 187 5
22 13 88 16 147 12 181 -19 278 -124 396 -50 57 -177 219 -363 465 -32 43 -63
95 -69 115 -10 40 -9 102 2 102 7 0 30 -28 58 -70 29 -43 85 -60 205 -60 212
0 263 58 251 285 -3 60 -3 102 0 93 8 -27 24 -22 24 7 0 14 -7 28 -14 31 -8 3
-24 34 -36 69 -41 123 -178 282 -292 337 -103 50 -170 57 -350 32z M11069
3306 c-2 -2 -45 -9 -96 -15 -53 -6 -108 -18 -130 -30 -63 -32 -137 -105 -172
-171 -40 -75 -59 -76 -79 -5 -22 82 -55 138 -93 158 -30 16 -52 18 -174 14
-187 -6 -198 -11 -219 -98 -9 -37 -21 -125 -26 -196 -15 -173 -27 -254 -46
-303 -13 -33 -21 -40 -43 -40 -16 0 -40 12 -57 28 -55 50 -194 301 -233 422
-42 128 -63 170 -90 178 -15 4 -87 7 -161 7 -160 0 -176 -7 -211 -95 -12 -30
-25 -59 -29 -63 -4 -5 -22 15 -39 45 -63 108 -46 100 -242 110 -185 9 -432 -4
-455 -23 -21 -17 -33 -67 -43 -179 -6 -58 -15 -143 -21 -190 -8 -58 -10 -165
-5 -334 5 -175 3 -246 -4 -242 -7 5 -9 -3 -6 -21 12 -73 12 -143 0 -359 -16
-266 -11 -585 10 -775 8 -69 19 -169 25 -222 5 -52 18 -117 29 -144 17 -43 22
-49 57 -55 63 -11 535 -9 577 3 96 26 102 213 9 251 -15 6 -67 12 -115 13
-102 4 -142 17 -162 55 -24 47 -38 232 -32 432 6 204 15 245 55 241 15 -2 22
3 22 15 0 31 64 90 106 97 79 13 143 36 172 60 17 14 33 25 36 25 32 0 62
-221 75 -560 22 -536 27 -589 63 -635 17 -22 27 -26 62 -23 26 2 40 7 38 16
-1 8 10 12 34 12 19 0 33 -4 30 -9 -3 -5 8 -11 25 -15 77 -15 164 1 173 32 11
38 26 144 36 257 17 185 47 295 79 295 28 0 72 -58 103 -133 39 -97 195 -374
234 -417 l32 -34 123 0 c157 1 189 12 207 75 6 24 19 82 28 129 18 99 52 221
65 235 13 14 24 -5 53 -97 29 -90 60 -142 124 -210 112 -120 169 -140 407
-142 l140 -1 63 34 c38 21 74 49 88 70 13 20 24 33 24 30 0 -4 24 17 54 45 87
84 97 113 106 300 5 89 13 191 20 229 16 92 8 287 -15 353 -9 28 -39 80 -66
115 -211 274 -413 547 -429 579 -22 43 -27 110 -8 110 6 0 27 -17 47 -39 44
-48 88 -61 201 -61 142 0 203 30 236 116 14 38 16 65 10 179 -8 160 -28 236
-87 321 -85 123 -181 198 -297 234 -56 17 -181 28 -193 16z m-1865 -378 c11
-58 6 -569 -7 -643 -15 -80 -15 -80 -122 -50 -76 21 -80 25 -95 83 -12 49 -44
92 -67 92 -10 0 -12 7 -8 23 6 21 6 21 -15 -3 l-20 -25 -20 24 c-11 12 -17 27
-14 32 3 6 1 15 -5 22 -5 7 -11 83 -13 174 -3 151 -2 163 18 190 25 33 41 37
100 28 37 -5 43 -10 46 -33 4 -33 22 -36 26 -4 2 12 9 22 15 22 23 0 112 48
137 73 33 34 36 33 44 -5z m1545 -750 c83 -116 120 -165 264 -348 106 -134
113 -147 136 -230 16 -58 17 -71 6 -87 -13 -17 -14 -17 -23 8 -14 37 -60 87
-96 106 -46 25 -268 25 -313 0 -47 -25 -70 -54 -89 -110 -14 -42 -18 -47 -30
-35 -65 64 -50 777 17 818 23 15 44 -6 128 -122z M8956 2653 c-20 -129 -20
-125 0 -121 13 2 19 12 19 31 -1 15 3 27 7 27 4 0 8 25 8 55 0 72 -24 77 -34
8z M8840 2605 c7 -8 16 -15 21 -15 5 0 6 7 3 15 -4 8 -13 15 -21 15 -13 0 -13
-3 -3 -15z M8935 2491 c-7 -24 4 -51 21 -51 9 0 14 12 14 35 0 38 -24 50 -35
16z M9010 2460 c0 -5 5 -10 11 -10 5 0 7 5 4 10 -3 6 -8 10 -11 10 -2 0 -4 -4
-4 -10z M9005 2349 c-10 -15 3 -25 16 -12 7 7 7 13 1 17 -6 3 -14 1 -17 -5z
M11907 3243 c-65 -6 -76 -25 -87 -159 -5 -60 -14 -149 -19 -199 -12 -106 -13
-249 -5 -470 6 -143 5 -158 -9 -147 -13 11 -15 10 -10 -7 3 -12 10 -21 16 -21
6 0 8 -37 4 -107 -29 -490 -7 -1216 41 -1365 l17 -53 50 -7 c74 -9 235 -9 363
2 62 5 123 6 135 1 37 -12 88 2 110 31 27 36 26 147 -1 182 -16 22 -26 24
-127 28 -119 5 -162 19 -191 62 -28 45 -47 259 -41 491 5 209 12 251 44 283
16 16 16 16 10 0 -3 -10 -2 -20 3 -23 6 -4 10 -17 10 -31 0 -15 6 -24 15 -24
8 0 15 9 15 20 0 11 4 20 9 20 5 0 3 17 -4 38 l-14 37 92 28 c152 46 154 47
168 114 9 47 9 71 -2 128 l-14 70 -42 8 c-24 4 -43 11 -43 15 0 4 -15 7 -33 8
-46 2 -112 21 -137 42 -16 13 -25 39 -36 97 -19 111 -18 125 7 125 11 0 17 5
14 10 -3 6 -15 10 -26 10 -18 0 -19 8 -19 173 0 153 2 176 20 204 10 17 27 36
37 41 29 15 90 23 119 16 25 -6 26 -9 20 -51 -8 -62 16 -52 28 10 7 41 11 47
33 47 13 0 37 7 53 15 44 23 56 74 43 180 -14 110 -27 126 -102 125 -31 -1
-148 0 -261 3 -113 3 -226 3 -253 0z M8377 2914 c-4 -4 -7 -19 -6 -33 l0 -26
10 24 c10 26 8 47 -4 35z M11757 2914 c-4 -4 -7 -19 -6 -33 l0 -26 10 24 c10
26 8 47 -4 35z M11650 2848 c0 -8 7 -23 15 -34 15 -18 15 -18 13 10 -3 29 -28
50 -28 24z M12821 2768 c0 -9 -4 -25 -7 -35 -5 -17 -5 -17 6 0 6 10 9 25 7 35
-4 15 -5 15 -6 0z M12346 2688 c-30 -113 -33 -151 -9 -146 12 2 18 15 20 48 1
25 5 57 7 72 5 27 -11 51 -18 26z M5850 2630 c0 -16 4 -30 8 -30 5 0 7 14 4
30 -2 17 -6 30 -8 30 -2 0 -4 -13 -4 -30z M12220 2605 c7 -9 15 -13 17 -11 7
7 -7 26 -19 26 -6 0 -6 -6 2 -15z M12318 2493 c-6 -24 1 -53 13 -53 5 0 9 16
9 35 0 36 -15 48 -22 18z M5930 2490 c0 -5 5 -10 10 -10 6 0 10 5 10 10 0 6
-4 10 -10 10 -5 0 -10 -4 -10 -10z M12262 2413 c-20 -52 -23 -71 -12 -78 5 -3
10 -15 10 -26 0 -10 5 -19 10 -19 6 0 10 -6 10 -14 0 -15 27 -30 34 -18 2 4 6
31 7 61 5 62 -13 80 -30 31 -6 -18 -15 -29 -21 -25 -6 3 -7 12 -3 18 8 12 15
97 9 97 -2 0 -8 -12 -14 -27z M13035 2390 c-4 -17 -5 -34 -2 -36 2 -3 7 10 11
27 8 42 0 50 -9 9z M12391 2344 c0 -11 3 -14 6 -6 3 7 2 16 -1 19 -3 4 -6 -2
-5 -13z M12205 2340 c3 -5 8 -10 11 -10 2 0 4 5 4 10 0 6 -5 10 -11 10 -5 0
-7 -4 -4 -10z M8350 2260 c0 -5 5 -10 10 -10 6 0 10 5 10 10 0 6 -4 10 -10 10
-5 0 -10 -4 -10 -10z M11730 2259 c0 -5 5 -7 10 -4 6 3 10 8 10 11 0 2 -4 4
-10 4 -5 0 -10 -5 -10 -11z M8338 2215 c-6 -28 6 -34 16 -9 8 22 7 34 -3 34
-5 0 -11 -11 -13 -25z M11718 2215 c-3 -14 -1 -25 3 -25 5 0 9 4 9 9 0 5 3 16
6 25 3 9 2 16 -4 16 -5 0 -12 -11 -14 -25z M5820 2086 c0 -2 8 -10 18 -17 15
-13 16 -12 3 4 -13 16 -21 21 -21 13z M8261 2044 c0 -11 3 -14 6 -6 3 7 2 16
-1 19 -3 4 -6 -2 -5 -13z M11641 2044 c0 -11 3 -14 6 -6 3 7 2 16 -1 19 -3 4
-6 -2 -5 -13z M5835 2030 c10 -11 20 -20 23 -20 3 0 -3 9 -13 20 -10 11 -20
20 -23 20 -3 0 3 -9 13 -20z M6035 1500 c-3 -5 -2 -10 4 -10 5 0 13 5 16 10 3
6 2 10 -4 10 -5 0 -13 -4 -16 -10z M2005 560 c-3 -5 -1 -10 4 -10 6 0 11 5 11
10 0 6 -2 10 -4 10 -3 0 -8 -4 -11 -10z M2250 530 c0 -5 5 -10 10 -10 6 0 10
5 10 10 0 6 -4 10 -10 10 -5 0 -10 -4 -10 -10z M2568 423 c6 -2 18 -2 25 0 6
3 1 5 -13 5 -14 0 -19 -2 -12 -5z M2460 410 c0 -5 11 -10 25 -10 14 0 25 5 25
10 0 6 -11 10 -25 10 -14 0 -25 -4 -25 -10z M2295 400 c-14 -6 3 -9 53 -9 42
-1 72 3 72 9 0 12 -97 12 -125 0z M2235 390 c3 -5 10 -10 16 -10 5 0 9 5 9 10
0 6 -7 10 -16 10 -8 0 -12 -4 -9 -10z"/>
</g>
</svg>